<svg xmlns="http://www.w3.org/2000/svg" width="32" height="32">
<style type="text/css">
	.st0{fill:#666666;}
	.st1{fill:#FFFFFF;}
</style>
<g>
	<path class="st0" d="M10.6,2h10.7c3,0,5.3,2.4,5.3,5.3v17.3c0,3-2.4,5.3-5.3,5.3H10.6c-3,0-5.3-2.4-5.3-5.3V7.3
		C5.3,4.4,7.7,2,10.6,2z"/>
</g>
<g>
	<g>
		<path class="st1" d="M20,16.5c0,1.3,0.7,2.3,2,3c-0.3,0.8-0.6,1.5-1,2.1c-0.3,0.4-0.5,0.7-0.6,0.9c-0.2,0.2-0.4,0.4-0.7,0.6
			c-0.3,0.2-0.6,0.3-0.9,0.3c-0.3,0-0.7-0.1-1.2-0.3c-0.5-0.2-0.9-0.3-1.3-0.3c-0.4,0-0.8,0.1-1.3,0.3c-0.5,0.2-0.8,0.3-1.1,0.3
			c-0.3,0-0.6-0.1-0.9-0.3c-0.3-0.2-0.6-0.4-0.7-0.7c-0.2-0.2-0.4-0.5-0.7-0.9c-0.4-0.6-0.8-1.4-1.1-2.2c-0.3-0.8-0.4-1.7-0.4-2.7
			c0-1,0.2-1.8,0.6-2.5c0.3-0.6,0.7-1,1.3-1.3c0.5-0.3,1.1-0.5,1.8-0.5c0.3,0,0.6,0.1,0.9,0.2c0.3,0.1,0.6,0.2,0.9,0.3
			c0.3,0.1,0.5,0.2,0.6,0.2c0.1,0,0.5-0.1,1.2-0.4c0.7-0.2,1.2-0.3,1.6-0.3c1.2,0,2.1,0.5,2.7,1.5C20.5,14.4,20,15.3,20,16.5
			L20,16.5z M16,12c-0.1-0.8,0.1-1.5,0.8-2.3c0.3-0.3,0.6-0.6,1-0.8c0.4-0.2,0.8-0.3,1.2-0.3c0.1,0.8-0.2,1.6-0.8,2.4
			c-0.3,0.3-0.6,0.6-1,0.8C16.8,12,16.4,12.1,16,12L16,12z M16,12"/>
	</g>
</g>
</svg>
