<svg xmlns="http://www.w3.org/2000/svg" width="32" height="32">
<style type="text/css">
	.st0{fill:#99CC99;}
	.st1{fill:#CCFFCC;}
	.st2{fill:#FFFFFF;}
</style>
<g>
	<path class="st0" d="M26.7,30H5.3V2H20l6.7,6.7V30z"/>
	<path class="st1" d="M25.7,9.3h-6.3V3L25.7,9.3z"/>
</g>
<g>
	<path class="st2" d="M10,16.9c0.3,0,0.6-0.2,0.8-0.5h1.9c-1.7,1-2.8,2.8-3.1,4.7c-0.4,0.2-0.6,0.6-0.5,1c0.1,0.4,0.5,0.7,0.9,0.7
		c0.4,0,0.8-0.3,0.9-0.7c0.1-0.4,0-0.8-0.4-1c0.3-2.5,2.3-4.4,4.7-4.7c0.2,0.2,0.4,0.4,0.8,0.4c0.3,0,0.6-0.2,0.8-0.4
		c2.5,0.3,4.4,2.3,4.7,4.7c-0.4,0.2-0.5,0.7-0.3,1.1c0.2,0.4,0.6,0.6,1,0.5c0.4-0.1,0.7-0.5,0.7-0.9c0-0.4-0.2-0.7-0.5-0.8
		c-0.3-2-1.4-3.7-3.1-4.7h1.9c0.2,0.3,0.5,0.5,0.8,0.5c0.5,0,0.9-0.4,0.9-0.9c0-0.5-0.4-0.9-0.9-0.9c-0.3,0-0.6,0.2-0.8,0.5h-4.4
		c-0.2-0.3-0.5-0.5-0.8-0.5c-0.3,0-0.6,0.2-0.8,0.5h-4.4c-0.2-0.3-0.5-0.5-0.8-0.5c-0.5,0-0.9,0.4-0.9,0.9
		C9.1,16.5,9.5,16.9,10,16.9z"/>
</g>
</svg>
