<svg xmlns="http://www.w3.org/2000/svg" width="32" height="32">
<style type="text/css">
	.st0{fill:#FFCCCC;}
	.st1{fill:#FFFFFF;}
	.st2{fill:#FF6666;}
</style>
<g>
	<g>
		<path class="st0" d="M26.7,30H5.3V2H20l6.7,6.7V30z"/>
		<path class="st1" d="M25.7,9.3h-6.3V3L25.7,9.3z"/>
	</g>
</g>
<g>
	<path class="st2" d="M16,11c-3.8,0-7,3.2-7,7c0,3.9,3.2,7,7,7c3.9,0,7-3.2,7-7S19.8,11,16,11L16,11z M18.8,18.5l-4,2.5
		c-0.1,0-0.2,0-0.3,0s-0.1,0-0.3,0c-0.1-0.2-0.2-0.3-0.2-0.5v-5c0-0.2,0.1-0.3,0.3-0.4c0.1-0.1,0.3-0.1,0.5,0l4,2.6
		c0.1,0.1,0.3,0.3,0.3,0.5C19,18.2,19,18.5,18.8,18.5L18.8,18.5z"/>
</g>
</svg>
