<svg xmlns="http://www.w3.org/2000/svg" width="32" height="32">
<style type="text/css">
	.st0{fill:#FF6666;}
	.st1{fill:#FFFFFF;}
</style>
<g>
	<g>
		<path class="st0" d="M26.7,30H5.3V2H20l6.7,6.7V30z"/>
		<path class="st1" d="M25.7,9.3h-6.3V3L25.7,9.3z"/>
	</g>
</g>
<g>
	<g>
		<path class="st1" d="M23.2,18.1c-0.5-0.5-1.4-0.8-2.6-0.8c-0.7,0-1.5,0.1-2.3,0.2c-0.5-0.5-1-1-1.4-1.7c-0.3-0.5-0.6-0.9-0.9-1.4
			c0.5-1.6,0.8-2.9,0.8-3.8c0-1-0.4-2.1-1.5-2.1c-0.3,0-0.7,0.2-0.8,0.5c-0.5,0.9-0.3,2.8,0.6,4.7c-0.3,0.9-0.6,1.9-1.1,2.9
			c-0.4,0.9-0.8,1.8-1.2,2.6c-2.4,1-4,2.2-4.2,3.1c-0.1,0.3,0,0.7,0.3,0.9c0.1,0.1,0.4,0.3,0.9,0.3c1.6,0,3.3-2.7,4.2-4.3
			c0.7-0.2,1.3-0.4,2-0.6c0.7-0.2,1.5-0.4,2.1-0.5c1.7,1.6,3.2,1.8,4,1.8c0.9,0,1.3-0.4,1.4-0.7C23.6,18.8,23.5,18.3,23.2,18.1
			L23.2,18.1z M22.4,18.8c-0.1,0.3-0.4,0.6-0.9,0.6c-0.1,0-0.2,0-0.4,0c-0.9-0.2-1.6-0.6-2.4-1.3c0.8-0.1,1.4-0.2,1.9-0.2
			c0.5,0,0.9,0,1.1,0.1C22,18,22.5,18.2,22.4,18.8L22.4,18.8z M17.7,17.7c-0.6,0.1-1.2,0.3-1.8,0.4c-0.5,0.1-1,0.3-1.6,0.5
			c0.3-0.6,0.5-1.1,0.8-1.6c0.3-0.6,0.5-1.3,0.7-1.9c0.2,0.4,0.5,0.8,0.7,1.1C16.8,16.8,17.2,17.3,17.7,17.7L17.7,17.7z M14.7,9.3
			C14.8,9.1,15,9,15.2,9c0.5,0,0.5,0.5,0.5,1c0,0.7-0.2,1.8-0.6,3.1C14.5,11.3,14.4,9.9,14.7,9.3L14.7,9.3z M12.3,19.9
			c-1.1,1.9-2.2,3.1-2.9,3.1c-0.1,0-0.2,0-0.3-0.1c-0.1-0.1-0.2-0.3-0.2-0.5C9.1,21.7,10.3,20.7,12.3,19.9L12.3,19.9z M12.3,19.9"/>
	</g>
</g>
</svg>
