<svg xmlns="http://www.w3.org/2000/svg" width="32" height="32">
<style type="text/css">
	.st0{fill:#CCCCCC;}
	.st1{fill:#FFFFFF;}
	.st2{fill:#666666;}
</style>
<g>
	<g>
		<path class="st0" d="M26.7,30H5.3V2H20l6.7,6.7V30z"/>
		<path class="st1" d="M25.7,9.3h-6.3V3L25.7,9.3z"/>
	</g>
</g>
<g>
	<g>
		<path class="st2" d="M8.4,21.2c-0.1,0-0.2,0-0.3-0.1C8,21,8,20.9,8,20.8v-3.6c0-0.2,0.2-0.4,0.4-0.4c0.2,0,0.4,0.2,0.4,0.4v3.6
			c0,0.1,0,0.2-0.1,0.3C8.6,21.1,8.5,21.2,8.4,21.2L8.4,21.2z M10.5,24.1c-0.1,0-0.2,0-0.3-0.1c-0.1-0.1-0.1-0.2-0.1-0.3v-9.5
			c0-0.2,0.2-0.4,0.4-0.4s0.4,0.2,0.4,0.4v9.5c0,0.1,0,0.2-0.1,0.3C10.7,24.1,10.6,24.1,10.5,24.1L10.5,24.1z M12.7,27
			c-0.1,0-0.2,0-0.3-0.1c-0.1-0.1-0.1-0.2-0.1-0.3V11.4c0-0.2,0.2-0.4,0.4-0.4c0.2,0,0.4,0.2,0.4,0.4v15.3c0,0.1,0,0.2-0.1,0.3
			C12.9,27,12.8,27,12.7,27L12.7,27z M14.9,26.3c-0.1,0-0.2,0-0.3-0.1c-0.1-0.1-0.1-0.2-0.1-0.3V12.1c0-0.2,0.2-0.4,0.4-0.4
			c0.2,0,0.4,0.2,0.4,0.4v13.8c0,0.1,0,0.2-0.1,0.3C15.1,26.2,15,26.3,14.9,26.3L14.9,26.3z M17.1,23.4c-0.1,0-0.2,0-0.3-0.1
			c-0.1-0.1-0.1-0.2-0.1-0.3v-8c0-0.2,0.2-0.4,0.4-0.4s0.4,0.2,0.4,0.4v8c0,0.1,0,0.2-0.1,0.3C17.3,23.3,17.2,23.4,17.1,23.4
			L17.1,23.4z M19.3,26.3c-0.1,0-0.2,0-0.3-0.1c-0.1-0.1-0.1-0.2-0.1-0.3V12.1c0-0.2,0.2-0.4,0.4-0.4c0.2,0,0.4,0.2,0.4,0.4v13.8
			c0,0.1,0,0.2-0.1,0.3C19.5,26.2,19.4,26.3,19.3,26.3L19.3,26.3z M21.5,23.4c-0.1,0-0.2,0-0.3-0.1c-0.1-0.1-0.1-0.2-0.1-0.3v-8
			c0-0.2,0.2-0.4,0.4-0.4c0.2,0,0.4,0.2,0.4,0.4v8c0,0.1,0,0.2-0.1,0.3C21.6,23.3,21.6,23.4,21.5,23.4L21.5,23.4z M23.6,21.2
			c-0.1,0-0.2,0-0.3-0.1c-0.1-0.1-0.1-0.2-0.1-0.3v-3.6c0-0.2,0.2-0.4,0.4-0.4c0.2,0,0.4,0.2,0.4,0.4v3.6c0,0.1,0,0.2-0.1,0.3
			C23.8,21.1,23.7,21.2,23.6,21.2L23.6,21.2z M23.6,21.2"/>
	</g>
</g>
</svg>