<svg xmlns="http://www.w3.org/2000/svg" width="32" height="32">
<style type="text/css">
	.st0{fill:#99CC99;}
	.st1{fill:#CCFFCC;}
	.st2{fill:#FFFFFF;}
</style>
<g>
	<path class="st0" d="M26.7,30H5.3V2H20l6.7,6.7V30z"/>
	<path class="st1" d="M25.7,9.3h-6.3V3L25.7,9.3z"/>
</g>
<g>
	<g>
		<path class="st2" d="M11.5,26c-1.3,0-2.3-1-2.5-2.2c-0.1-1.3,0.7-2.4,2-2.7c1.3-0.2,2.5,0.5,2.9,1.7h4v-1.4h1.4v-4.1l-1.6-1.6
			h-4.1v1.4H9.4v-4.3h4.3v1.4h4.1L20,12l3,3l-2.3,2.3v4.1h1.4v4.3h-4.3v-1.4h-4C13.5,25.3,12.6,26,11.5,26L11.5,26z M11.5,22.5
			c-0.6,0-1.1,0.5-1.1,1.1c0,0.6,0.5,1.1,1.1,1.1c0.6,0,1.1-0.5,1.1-1.1C12.5,22.9,12.1,22.5,11.5,22.5L11.5,22.5z M20.7,22.8h-1.4
			v1.4h1.4V22.8z M20,14l-1,1l1,1l1-1L20,14z M12.2,14.3h-1.4v1.4h1.4V14.3z M12.2,14.3"/>
	</g>
</g>
</svg>
