<svg xmlns="http://www.w3.org/2000/svg" width="32" height="32">
<style type="text/css">
	.st0{fill:#FF6633;}
	.st1{fill:#FF9966;}
	.st2{fill:#FFFFFF;}
</style>
<g>
	<g>
		<path class="st0" d="M26.7,30H5.3V2H20l6.7,6.7V30z"/>
		<path class="st1" d="M25.7,9.3h-6.3V3L25.7,9.3z"/>
	</g>
</g>
<g>
	<path class="st2" d="M18.2,26.9l-1.4-4.5H15l-1.3,4.5h-1.5l1.3-4.5h-2.9c-0.8,0-1.5-0.7-1.5-1.5v-6.7c-0.5,0-0.7-0.3-0.7-0.8
		c0-0.4,0.3-0.7,0.7-0.7h5.2c0-0.8,0.7-1.5,1.5-1.5c0.8,0,1.5,0.7,1.5,1.5h5.2c0.4,0,0.7,0.3,0.7,0.7c0,0.5-0.3,0.8-0.7,0.8v6.7
		c0,0.8-0.7,1.5-1.5,1.5h-2.8l1.4,4.5H18.2z M18.2,26.9"/>
</g>
</svg>
