<svg xmlns="http://www.w3.org/2000/svg" width="32" height="32">
<style type="text/css">
	.st0{fill:#3DDC84;}
	.st1{fill:#FFFFFF;}
</style>
<g>
	<path class="st0" d="M10.6,2h10.7c3,0,5.3,2.4,5.3,5.3v17.3c0,3-2.4,5.3-5.3,5.3H10.6c-3,0-5.3-2.4-5.3-5.3V7.3
		C5.3,4.4,7.7,2,10.6,2z"/>
</g>
<path class="st1" d="M19.7,14.3l1.2-2.2c0.1-0.1,0-0.3-0.1-0.3c-0.1-0.1-0.3,0-0.3,0.1l-1.3,2.2c-1-0.4-2-0.7-3.2-0.7
	c-1.2,0-2.2,0.2-3.2,0.7l-1.3-2.2c-0.1-0.1-0.2-0.2-0.3-0.1c-0.1,0.1-0.2,0.2-0.1,0.3l1.2,2.2c-2.1,1.2-3.6,3.3-3.8,5.9h15
	C23.3,17.7,21.8,15.5,19.7,14.3L19.7,14.3z M12.6,18.1c-0.3,0-0.6-0.3-0.6-0.6c0-0.3,0.3-0.6,0.6-0.6c0.3,0,0.6,0.3,0.6,0.6
	C13.2,17.8,12.9,18.1,12.6,18.1z M19.4,18.1c-0.3,0-0.6-0.3-0.6-0.6c0-0.3,0.3-0.6,0.6-0.6c0.3,0,0.6,0.3,0.6,0.6
	C20.1,17.8,19.8,18.1,19.4,18.1z"/>
</svg>
