<svg xmlns="http://www.w3.org/2000/svg" viewBox="0 0 32 32" width="32" height="32">
<style type="text/css">
	.st0{fill:#CCCCCC;}
	.st1{fill:#FFFFFF;}
	.st2{fill:#666666;}
</style>
<g>
	<path class="st0" d="M26.7,30H5.3V2H20l6.7,6.7V30z"/>
	<path class="st1" d="M25.7,9.3h-6.3V3L25.7,9.3z"/>
</g>
<g>
	<path class="st2" d="M22,16.3l-0.7,0.1c-0.2-1-0.4-1.5-0.6-1.8C20.3,14.1,20,14,18.4,14h-1.7v10.2c0,1.6,0.2,1.8,2.2,1.9v0.6h-6
		v-0.6c2-0.1,2.2-0.3,2.2-1.9V14h-1.6c-1.6,0-2.1,0.2-2.3,0.6c-0.2,0.4-0.4,0.9-0.7,1.8H10c0.1-1.2,0.2-2.4,0.2-3.6h0.5
		c0.3,0.5,0.6,0.4,1.2,0.4h8.4c0.6,0,0.7,0,1-0.4h0.5C21.8,13.8,21.9,15.2,22,16.3L22,16.3z M22,16.3"/>
</g>
</svg>
